PathFileType	4	(X/Y/Z)	s01c0302.trc
DataRate	CameraRate	NumFrames	NumMarkers	Units	OrigDataRate	OrigDataStartFrame	OrigNumFrames
200	200	5	48	mm	200	1000	2000
Frame#	Time	racr			lacr			c7			jug			rlel			rdr			llel			ldr			s2			lic			ric			lasi			rasi			rpsi			lpsi			rgt			lgt			rth1			rth2			rth3			rth4			rlfc			rsh1			rsh2			rsh3			rsh4			rlmal			rmmal			rcal			rtoe			rmt5			lth1			lth2			lth4			lth3			llfc			lsh1			lsh2			lsh3			lsh4			llmal			lmmal			lcal			ltoe			lmt5			SBIKE			LBIKE			RBIKE			
		X1	Y1	Z1	X2	Y2	Z2	X3	Y3	Z3	X4	Y4	Z4	X5	Y5	Z5	X6	Y6	Z6	X7	Y7	Z7	X8	Y8	Z8	X9	Y9	Z9	X10	Y10	Z10	X11	Y11	Z11	X12	Y12	Z12	X13	Y13	Z13	X14	Y14	Z14	X15	Y15	Z15	X16	Y16	Z16	X17	Y17	Z17	X18	Y18	Z18	X19	Y19	Z19	X20	Y20	Z20	X21	Y21	Z21	X22	Y22	Z22	X23	Y23	Z23	X24	Y24	Z24	X25	Y25	Z25	X26	Y26	Z26	X27	Y27	Z27	X28	Y28	Z28	X29	Y29	Z29	X30	Y30	Z30	X31	Y31	Z31	X32	Y32	Z32	X33	Y33	Z33	X34	Y34	Z34	X35	Y35	Z35	X36	Y36	Z36	X37	Y37	Z37	X38	Y38	Z38	X39	Y39	Z39	X40	Y40	Z40	X41	Y41	Z41	X42	Y42	Z42	X43	Y43	Z43	X44	Y44	Z44	X45	Y45	Z45	X46	Y46	Z46	X47	Y47	Z47	X48	Y48	Z48	
1000	5.0000	715.910034	1365.653687	-107.531174	719.181396	1334.203003	-435.484344	689.940430	1433.286865	-264.360748	670.991760	1272.918091	-268.170105	666.358398	1092.820557	7.081168	743.012878	851.777405	-58.679630	607.340027	1081.065308	-547.267456	729.674683	886.241333	-435.323395	-150.315689	375.689636	-104.024590	279.739563	1256.934326	-389.844971	349.179657	1200.407104	-75.252739	305.971893	1197.528076	-388.821442	362.133423	1154.072510	-105.994911	201.390350	1250.252319	-136.082932	171.501968	1266.987427	-235.065643	273.018280	1081.430054	-43.303116	232.372131	1131.370605	-417.390625	302.720886	967.553101	-28.244537	323.489227	887.787964	-37.000549	340.152191	800.363770	-44.718517	377.229889	899.842712	-48.506077	331.204987	682.021667	-68.902458	279.032227	578.125305	-34.890984	254.884186	496.915985	-38.277699	221.729996	414.761993	-47.098049	301.246490	482.003540	-74.059395	175.614471	307.545258	-67.863869	217.086273	309.569153	-143.074844	136.215210	333.239868	-119.036148	273.178192	99.510262	-142.139557	193.983566	158.632812	-60.302719	318.702728	1048.670288	-443.110657	402.797363	1025.682617	-461.546295	420.396118	1076.943726	-452.083801	482.225128	992.728210	-466.337769	574.944214	917.915161	-465.291779	484.466064	862.378967	-477.298981	427.231415	795.571838	-465.650726	371.616638	734.243835	-443.880768	474.568726	761.568970	-447.757874	282.657898	630.098938	-415.197052	316.031281	626.724426	-338.424591	223.247635	625.942993	-369.448700	434.099396	447.591095	-370.003326	337.246704	490.411835	-439.061127	-224.037949	893.309021	-250.765686	-12.531045	85.246933	-455.753052	-21.484604	80.948227	-55.571121	
1001	5.0050	716.604858	1364.537109	-109.437248	718.196228	1332.949341	-437.338623	689.985229	1432.347656	-266.021271	670.645874	1272.339600	-269.798401	666.407532	1092.032715	6.084731	742.861145	851.309570	-58.891964	604.508728	1080.222778	-547.699341	728.955750	886.379089	-435.349823	-152.001648	354.891541	-103.091103	278.979797	1257.365356	-389.570831	348.997589	1200.885254	-75.197319	308.565338	1198.595581	-391.894653	362.572662	1154.538208	-105.256599	201.348557	1252.068359	-135.270966	171.571075	1268.457520	-234.462708	273.110321	1082.343384	-42.443527	231.124756	1131.922607	-415.581116	304.280670	967.778625	-28.681715	326.096497	888.305603	-38.023960	343.985565	801.078003	-47.114311	379.472382	901.256714	-49.302742	334.786926	682.921631	-70.465057	279.784668	580.066650	-37.009945	252.639481	499.883270	-40.835068	216.343994	419.007507	-50.012676	298.383911	483.335388	-76.680893	167.032364	313.484009	-70.282082	208.343643	314.286499	-145.576416	127.433731	338.598938	-121.304520	263.314453	103.930672	-142.355286	184.708588	164.377182	-61.084274	317.010437	1047.791382	-440.395782	400.942352	1024.260010	-458.625610	418.861328	1075.530396	-450.024170	480.125610	990.732727	-463.617737	575.408081	916.648865	-461.124359	485.087555	859.245239	-473.474945	428.190796	791.530762	-463.749664	373.565002	729.840393	-443.108337	475.786346	757.771973	-445.779449	284.665283	623.083557	-415.346313	317.356995	620.642334	-338.193665	224.377716	616.013916	-370.023285	443.730591	448.169373	-370.646759	344.521179	485.670502	-439.492065	-224.088043	893.234436	-250.972794	-12.552217	85.154495	-455.787720	-21.546160	80.913673	-55.606674	
1002	5.0100	717.280151	1363.469604	-111.387146	717.065369	1331.398071	-439.193817	689.900452	1431.428711	-267.753448	670.183716	1271.744507	-271.369171	666.440491	1091.277954	4.986991	742.673218	850.908936	-59.031116	602.004211	1079.063354	-548.154114	728.342407	886.432800	-435.556427	-153.668213	334.114563	-102.383888	278.181793	1257.681519	-389.395050	348.629639	1201.399292	-75.098137	311.090179	1199.487793	-394.802612	361.970917	1155.060181	-105.030090	201.200500	1253.855713	-134.465515	171.643967	1269.959106	-233.942810	273.019196	1083.109619	-41.261360	230.305145	1132.413818	-414.000031	306.077789	967.822205	-29.053658	329.207947	888.827637	-39.367027	348.526459	801.984314	-49.664997	382.251556	902.677185	-50.550438	339.197021	683.767334	-72.304237	281.163452	582.248596	-39.416401	250.925095	503.216064	-43.600376	211.556046	423.731018	-53.201008	295.638672	485.118744	-80.099060	158.593674	319.906403	-73.139000	200.372360	319.445343	-147.907440	118.924751	344.509094	-124.153175	253.999008	108.954659	-142.191208	175.525146	170.715103	-62.021801	315.240784	1046.177490	-437.644562	398.926910	1021.667908	-455.458771	417.301697	1073.065063	-448.027008	477.881104	987.733521	-460.779968	574.495850	913.090149	-457.488892	484.878296	854.318176	-469.624084	428.396820	786.127808	-461.713837	374.024353	723.825439	-442.251556	476.005737	752.321533	-443.557648	286.015045	614.831116	-415.326935	318.299866	613.456604	-337.956787	225.266815	604.900818	-370.880005	452.311432	447.916168	-370.850861	351.531250	480.242920	-440.109619	-224.108810	893.174805	-251.230453	-12.568415	85.074287	-455.821442	-21.564739	80.917595	-55.649673	
1003	5.0150	717.859619	1362.349854	-113.338737	715.924622	1329.667969	-441.067352	689.686951	1430.575806	-269.523773	669.636963	1271.296875	-272.844788	666.268555	1090.603271	3.906704	742.437866	850.638794	-59.145340	599.469299	1077.763672	-548.778259	727.612366	886.510681	-435.749298	-155.302094	313.320892	-101.901306	277.846222	1257.897949	-389.461426	347.996155	1202.046387	-74.917984	313.462891	1200.166138	-397.432251	361.246063	1155.644043	-104.721596	201.011246	1255.565063	-133.846802	171.782593	1271.192261	-233.582123	272.950531	1083.863281	-40.301746	229.665833	1132.758179	-412.380188	308.222687	967.665405	-29.413111	332.743225	889.462341	-40.910263	353.799561	803.028076	-52.100800	385.233612	904.314453	-52.191074	344.285400	684.688965	-74.364731	283.079529	584.763306	-41.779560	249.958572	507.015015	-46.284241	207.622543	429.013824	-56.199005	293.949158	487.428711	-82.964691	150.240158	327.007355	-76.273575	193.146393	325.027527	-150.072998	110.934883	350.975433	-127.707748	245.017242	114.482353	-141.497879	166.336349	177.802979	-62.958912	313.485687	1044.020874	-434.885071	396.839081	1018.250549	-452.460968	415.690155	1069.601562	-446.383118	475.518768	983.777954	-457.841248	573.166077	907.823730	-453.397858	483.758270	848.057434	-466.155457	427.960846	779.508606	-459.643829	373.787903	716.218872	-441.166656	475.452179	745.402771	-441.122223	287.020355	605.608398	-415.265839	318.936554	605.189880	-337.649078	226.022034	592.761780	-371.758240	460.255615	447.182159	-371.198059	358.084045	474.006866	-440.698792	-224.116547	893.150269	-251.542084	-12.578852	85.007034	-455.852356	-21.583422	80.912773	-55.697308	
1004	5.0200	718.410034	1361.460693	-115.279137	714.681335	1327.854370	-443.051361	689.338257	1429.781982	-271.299713	669.066589	1270.582642	-274.259735	666.129944	1090.098755	2.849659	742.243469	850.477905	-59.298061	597.009338	1076.065552	-549.461853	726.948608	886.575317	-435.904541	-156.863663	292.748474	-100.687431	277.891144	1257.982300	-389.629578	347.169434	1202.760254	-74.691574	315.600037	1200.592163	-399.670441	360.405853	1156.170898	-104.352898	200.899384	1257.090698	-133.391983	171.937027	1272.357300	-233.419189	272.895172	1084.561401	-39.489189	229.241272	1132.809814	-411.209106	310.604828	967.478027	-29.791813	336.542206	890.038452	-42.532452	359.427460	804.234009	-54.217461	388.452515	906.068604	-54.094227	350.171448	685.597168	-76.693817	285.410248	587.748718	-43.980888	249.639572	511.209625	-48.783199	204.548035	434.823303	-58.824070	292.645416	490.401733	-85.938332	142.328476	334.643433	-79.633247	186.639679	331.014801	-152.078186	103.585594	358.143158	-131.549255	236.287613	120.476059	-140.771210	157.320618	185.595474	-63.959194	311.799011	1041.606689	-432.463959	394.706543	1014.483887	-449.531494	414.320923	1065.455566	-444.988647	473.083313	978.964111	-454.818359	571.489807	901.075134	-449.230377	481.840027	840.545532	-463.353394	426.927917	771.645386	-457.468079	373.268738	707.468811	-439.839386	474.453400	737.587769	-438.725769	288.224915	595.460388	-415.893585	319.710693	595.912781	-337.168854	226.917572	579.618042	-372.709503	468.070221	445.634583	-371.779663	364.370514	467.132874	-441.422546	-224.103348	893.149963	-251.846375	-12.581536	84.958832	-455.887421	-21.588049	80.926628	-55.747341	
